<svg width="40" height="40" viewBox="0 0 40 40" fill="none" xmlns="http://www.w3.org/2000/svg">
<circle cx="20" cy="20" r="20" fill="white"/>
<path fill-rule="evenodd" clip-rule="evenodd" d="M13.2929 13.2928C13.6835 12.9023 14.3167 12.9024 14.7072 13.2929L19.998 18.5846L25.2889 13.2929C25.6794 12.9024 26.3126 12.9023 26.7032 13.2928C27.0937 13.6833 27.0937 14.3165 26.7032 14.7071L21.4122 19.9989L26.7028 25.2902C27.0933 25.6807 27.0932 26.3139 26.7027 26.7044C26.3121 27.0949 25.6789 27.0948 25.2884 26.7043L19.998 21.4132L14.7077 26.7043C14.3172 27.0948 13.684 27.0949 13.2934 26.7044C12.9029 26.3139 12.9028 25.6807 13.2933 25.2902L18.5839 19.9989L13.2928 14.7071C12.9023 14.3165 12.9024 13.6833 13.2929 13.2928Z" fill="#252849"/>
</svg>
