<svg width="24" height="24" viewBox="0 0 24 24" fill="none" xmlns="http://www.w3.org/2000/svg">
<path fill-rule="evenodd" clip-rule="evenodd" d="M7.00746 7.00731C7.39801 6.61681 8.03118 6.61686 8.42167 7.00741L12 10.5863L15.5784 7.00741C15.9689 6.61686 16.6021 6.61681 16.9926 7.00731C17.3832 7.39781 17.3832 8.03098 16.9927 8.42153L13.4142 12.0006L16.9923 15.5792C17.3828 15.9698 17.3828 16.603 16.9923 16.9935C16.6017 17.384 15.9685 17.3839 15.578 16.9934L12 13.4149L8.42203 16.9934C8.03153 17.3839 7.39836 17.384 7.00781 16.9935C6.61726 16.603 6.61722 15.9698 7.00772 15.5792L10.5859 12.0006L7.00736 8.42153C6.61687 8.03098 6.61691 7.39781 7.00746 7.00731Z" fill="white"/>
</svg>
