<svg width="64" height="64" viewBox="0 0 64 64" fill="none" xmlns="http://www.w3.org/2000/svg">
<path fill-rule="evenodd" clip-rule="evenodd" d="M6.84117 5.59807C7.76325 5.15332 8.85855 5.2757 9.65974 5.91301L23.1557 16.6484L37.9714 5.84526C38.9076 5.16262 40.1775 5.16262 41.1137 5.84526L57.5708 17.8453C58.2592 18.3472 58.6663 19.1479 58.6663 19.9999V55.9999C58.6663 57.0035 58.1029 57.9221 57.2083 58.377C56.3137 58.8319 55.2395 58.7459 54.4286 58.1546L39.5425 47.3002L24.6565 58.1546C23.6869 58.8616 22.3645 58.8339 21.4253 58.0869L6.33961 46.0869C5.7036 45.581 5.33301 44.8126 5.33301 43.9999V7.99994C5.33301 6.9762 5.91908 6.04283 6.84117 5.59807ZM36.8747 13.2456L25.708 21.3879V50.7873L36.8747 42.645V13.2456ZM42.208 13.2438V42.6432L53.333 50.7552V21.3558L42.208 13.2438ZM10.6663 13.5286L20.3747 21.2511V50.4363L10.6663 42.7137V13.5286Z" fill="#7C7E92" fill-opacity="0.56"/>
</svg>
